<svg xmlns="http://www.w3.org/2000/svg" xmlns:xlink="http://www.w3.org/1999/xlink" width="1920" zoomAndPan="magnify" viewBox="0 0 1440 809.999993" height="1080" preserveAspectRatio="xMidYMid meet" version="1.0"><defs><clipPath id="5e7d04af5a"><path d="M 0 0 L 26 0 L 26 343.046875 L 0 343.046875 Z M 0 0 " clip-rule="nonzero"/></clipPath><clipPath id="c2ef8b7195"><path d="M 0 0 L 78 0 L 78 343.046875 L 0 343.046875 Z M 0 0 " clip-rule="nonzero"/></clipPath><clipPath id="c4aec20d03"><path d="M 0 0 L 130 0 L 130 343.046875 L 0 343.046875 Z M 0 0 " clip-rule="nonzero"/></clipPath><clipPath id="d9718fd98c"><path d="M 0 0 L 182 0 L 182 343.046875 L 0 343.046875 Z M 0 0 " clip-rule="nonzero"/></clipPath><clipPath id="8255061ee2"><path d="M 0 0 L 234 0 L 234 343.046875 L 0 343.046875 Z M 0 0 " clip-rule="nonzero"/></clipPath><clipPath id="1454c21e65"><path d="M 0 0 L 286 0 L 286 343.046875 L 0 343.046875 Z M 0 0 " clip-rule="nonzero"/></clipPath><clipPath id="b2aa1ba90a"><path d="M 26 0 L 337.953125 0 L 337.953125 343.046875 L 26 343.046875 Z M 26 0 " clip-rule="nonzero"/></clipPath><clipPath id="7969dd3e5a"><path d="M 960.242188 0 L 1328 0 L 1328 430.898438 L 960.242188 430.898438 Z M 960.242188 0 " clip-rule="nonzero"/></clipPath><clipPath id="0c211553c0"><path d="M 1021 0 L 1389 0 L 1389 430.898438 L 1021 430.898438 Z M 1021 0 " clip-rule="nonzero"/></clipPath><clipPath id="6ec5113890"><path d="M 1083 0 L 1440 0 L 1440 430.898438 L 1083 430.898438 Z M 1083 0 " clip-rule="nonzero"/></clipPath><clipPath id="d8a66a36bc"><path d="M 1144 0 L 1440 0 L 1440 430.898438 L 1144 430.898438 Z M 1144 0 " clip-rule="nonzero"/></clipPath><clipPath id="097d7098d6"><path d="M 1206 0 L 1440 0 L 1440 430.898438 L 1206 430.898438 Z M 1206 0 " clip-rule="nonzero"/></clipPath><clipPath id="08cbcbaa28"><path d="M 1267 0 L 1440 0 L 1440 430.898438 L 1267 430.898438 Z M 1267 0 " clip-rule="nonzero"/></clipPath><clipPath id="2f86806c96"><path d="M 1329 0 L 1440 0 L 1440 430.898438 L 1329 430.898438 Z M 1329 0 " clip-rule="nonzero"/></clipPath><clipPath id="e15d1f6fe9"><path d="M 1390 0 L 1440 0 L 1440 430.898438 L 1390 430.898438 Z M 1390 0 " clip-rule="nonzero"/></clipPath></defs><rect x="-144" width="1728" fill="#ffffff" y="-80.999999" height="971.999992" fill-opacity="1"/><rect x="-144" width="1728" fill="#fdfdfc" y="-80.999999" height="971.999992" fill-opacity="1"/><g clip-path="url(#5e7d04af5a)"><path fill="#eb393c" d="M -280.679688 343.074219 L -285.671875 336.742188 L 20.425781 -51.402344 L 25.421875 -45.070312 L -280.679688 343.074219 " fill-opacity="1" fill-rule="nonzero"/></g><g clip-path="url(#c2ef8b7195)"><path fill="#eb393c" d="M -228.582031 343.074219 L -233.574219 336.742188 L 72.527344 -51.402344 L 77.519531 -45.070312 L -228.582031 343.074219 " fill-opacity="1" fill-rule="nonzero"/></g><g clip-path="url(#c4aec20d03)"><path fill="#eb393c" d="M -176.484375 343.074219 L -181.476562 336.742188 L 124.625 -51.402344 L 129.617188 -45.070312 L -176.484375 343.074219 " fill-opacity="1" fill-rule="nonzero"/></g><g clip-path="url(#d9718fd98c)"><path fill="#eb393c" d="M -124.382812 343.074219 L -129.378906 336.742188 L 176.722656 -51.402344 L 181.714844 -45.070312 L -124.382812 343.074219 " fill-opacity="1" fill-rule="nonzero"/></g><g clip-path="url(#8255061ee2)"><path fill="#eb393c" d="M -72.285156 343.074219 L -77.28125 336.742188 L 228.820312 -51.402344 L 233.816406 -45.070312 L -72.285156 343.074219 " fill-opacity="1" fill-rule="nonzero"/></g><g clip-path="url(#1454c21e65)"><path fill="#eb393c" d="M -20.183594 343.074219 L -25.179688 336.742188 L 280.921875 -51.402344 L 285.914062 -45.070312 L -20.183594 343.074219 " fill-opacity="1" fill-rule="nonzero"/></g><g clip-path="url(#b2aa1ba90a)"><path fill="#eb393c" d="M 31.914062 343.074219 L 26.917969 336.742188 L 333.023438 -51.402344 L 338.015625 -45.070312 L 31.914062 343.074219 " fill-opacity="1" fill-rule="nonzero"/></g><g clip-path="url(#7969dd3e5a)"><path fill="#eb393c" d="M 966.164062 430.933594 L 960.269531 423.460938 L 1321.410156 -34.789062 L 1327.300781 -27.316406 L 966.164062 430.933594 " fill-opacity="1" fill-rule="nonzero"/></g><g clip-path="url(#0c211553c0)"><path fill="#eb393c" d="M 1027.628906 430.933594 L 1021.738281 423.460938 L 1382.875 -34.789062 L 1388.765625 -27.316406 L 1027.628906 430.933594 " fill-opacity="1" fill-rule="nonzero"/></g><g clip-path="url(#6ec5113890)"><path fill="#eb393c" d="M 1089.097656 430.933594 L 1083.203125 423.460938 L 1444.339844 -34.789062 L 1450.234375 -27.316406 L 1089.097656 430.933594 " fill-opacity="1" fill-rule="nonzero"/></g><g clip-path="url(#d8a66a36bc)"><path fill="#eb393c" d="M 1150.5625 430.933594 L 1144.671875 423.460938 L 1505.804688 -34.789062 L 1511.699219 -27.316406 L 1150.5625 430.933594 " fill-opacity="1" fill-rule="nonzero"/></g><g clip-path="url(#097d7098d6)"><path fill="#eb393c" d="M 1212.03125 430.933594 L 1206.136719 423.460938 L 1567.273438 -34.789062 L 1573.164062 -27.316406 L 1212.03125 430.933594 " fill-opacity="1" fill-rule="nonzero"/></g><g clip-path="url(#08cbcbaa28)"><path fill="#eb393c" d="M 1273.496094 430.933594 L 1267.601562 423.460938 L 1628.738281 -34.789062 L 1634.632812 -27.316406 L 1273.496094 430.933594 " fill-opacity="1" fill-rule="nonzero"/></g><g clip-path="url(#2f86806c96)"><path fill="#eb393c" d="M 1334.964844 430.933594 L 1329.070312 423.460938 L 1690.207031 -34.789062 L 1696.097656 -27.316406 L 1334.964844 430.933594 " fill-opacity="1" fill-rule="nonzero"/></g><g clip-path="url(#e15d1f6fe9)"><path fill="#eb393c" d="M 1396.429688 430.933594 L 1390.535156 423.460938 L 1751.675781 -34.789062 L 1757.566406 -27.316406 L 1396.429688 430.933594 " fill-opacity="1" fill-rule="nonzero"/></g></svg>