<svg width="45" height="45" viewBox="0 0 45 45" fill="none" xmlns="http://www.w3.org/2000/svg">
<path d="M18.75 33.75H20.625V26.25C21.4063 26.25 22.0706 25.9762 22.6181 25.4288C23.1656 24.8813 23.4388 24.2175 23.4375 23.4375V17.8125H21.5625V23.4375H20.625V17.8125H18.75V23.4375H17.8125V17.8125H15.9375V23.4375C15.9375 24.2188 16.2113 24.8831 16.7587 25.4306C17.3063 25.9781 17.97 26.2512 18.75 26.25V33.75ZM26.25 33.75H28.125V17.8125C27.0938 17.8125 26.2106 18.18 25.4756 18.915C24.7406 19.65 24.3738 20.5325 24.375 21.5625V27.1875H26.25V33.75ZM7.5 39.375V16.875L22.5 5.625L37.5 16.875V39.375H7.5ZM11.25 35.625H33.75V18.75L22.5 10.3125L11.25 18.75V35.625Z" fill="#D62300"/>
</svg>
