<svg width="30" height="30" viewBox="0 0 30 30" fill="none" xmlns="http://www.w3.org/2000/svg">
<path d="M23.6174 21.7425L16.9893 28.3725C16.7281 28.6339 16.418 28.8412 16.0766 28.9826C15.7353 29.1241 15.3694 29.1969 14.9999 29.1969C14.6304 29.1969 14.2645 29.1241 13.9232 28.9826C13.5818 28.8412 13.2717 28.6339 13.0105 28.3725L6.3824 21.7425C5.25062 20.6108 4.35281 19.2673 3.74024 17.7887C3.12767 16.31 2.81234 14.7252 2.81226 13.1247C2.81217 11.5242 3.12733 9.93937 3.73973 8.46067C4.35214 6.98196 5.2498 5.63835 6.38147 4.50656C7.51313 3.37478 8.85664 2.47697 10.3353 1.8644C11.8139 1.25183 13.3987 0.936504 14.9992 0.936417C16.5997 0.93633 18.1846 1.25149 19.6633 1.86389C21.142 2.4763 22.4856 3.37396 23.6174 4.50563C24.7493 5.63736 25.6472 6.98098 26.2597 8.45974C26.8723 9.9385 27.1876 11.5234 27.1876 13.1241C27.1876 14.7247 26.8723 16.3096 26.2597 17.7884C25.6472 19.2672 24.7493 20.6108 23.6174 21.7425ZM21.6299 6.495C19.8715 4.73662 17.4866 3.74689 14.9999 3.74689C12.5132 3.74689 10.1283 4.73474 8.3699 6.49313C6.61152 8.25151 5.62367 10.6364 5.62367 13.1231C5.62367 15.6099 6.61152 17.9947 8.3699 19.7531L14.9999 26.3813L21.6299 19.755C22.5007 18.8844 23.1915 17.8508 23.6628 16.7132C24.1341 15.5756 24.3767 14.3564 24.3767 13.125C24.3767 11.8937 24.1341 10.6744 23.6628 9.53677C23.1915 8.39919 22.5007 7.36558 21.6299 6.495ZM14.9999 16.875C14.5005 16.8863 14.0039 16.7977 13.5392 16.6144C13.0746 16.4312 12.6512 16.1569 12.294 15.8077C11.9367 15.4586 11.6529 15.0416 11.459 14.5812C11.2652 14.1209 11.1653 13.6264 11.1651 13.1269C11.165 12.6274 11.2647 12.1329 11.4583 11.6724C11.6519 11.212 11.9356 10.7948 12.2926 10.4455C12.6497 10.0962 13.0729 9.82169 13.5375 9.63818C14.0021 9.45467 14.4986 9.36583 14.998 9.37688C15.9778 9.39854 16.9102 9.80292 17.5956 10.5035C18.281 11.204 18.6649 12.145 18.6651 13.125C18.6654 14.1051 18.2819 15.0463 17.5969 15.7471C16.9119 16.448 15.9797 16.8528 14.9999 16.875Z" fill="#D62300"/>
</svg>
