<svg width="30" height="30" viewBox="0 0 30 30" fill="none" xmlns="http://www.w3.org/2000/svg">
<path fill-rule="evenodd" clip-rule="evenodd" d="M16.5 5.25H9V2.25H16.5C18.4891 2.25 20.3968 3.04018 21.8033 4.4467C23.2098 5.85322 24 7.76088 24 9.75V11.25C24 13.2391 23.2098 15.1468 21.8033 16.5533C20.3968 17.9598 18.4891 18.75 16.5 18.75H9V15.75H16.5C17.6935 15.75 18.8381 15.2759 19.682 14.432C20.5259 13.5881 21 12.4435 21 11.25V9.75C21 8.55653 20.5259 7.41193 19.682 6.56802C18.8381 5.72411 17.6935 5.25 16.5 5.25Z" fill="#D62300"/>
<path fill-rule="evenodd" clip-rule="evenodd" d="M9 2.25C9.39782 2.25 9.77936 2.40804 10.0607 2.68934C10.342 2.97064 10.5 3.35218 10.5 3.75V27C10.5 27.3978 10.342 27.7794 10.0607 28.0607C9.77936 28.342 9.39782 28.5 9 28.5C8.60218 28.5 8.22064 28.342 7.93934 28.0607C7.65804 27.7794 7.5 27.3978 7.5 27V3.75C7.5 3.35218 7.65804 2.97064 7.93934 2.68934C8.22064 2.40804 8.60218 2.25 9 2.25Z" fill="#D62300"/>
<path fill-rule="evenodd" clip-rule="evenodd" d="M3 8.15401C3 7.75618 3.15804 7.37465 3.43934 7.09335C3.72064 6.81204 4.10218 6.65401 4.5 6.65401H25.5C25.8978 6.65401 26.2794 6.81204 26.5607 7.09335C26.842 7.37465 27 7.75618 27 8.15401C27 8.55183 26.842 8.93336 26.5607 9.21467C26.2794 9.49597 25.8978 9.65401 25.5 9.65401H4.5C4.10218 9.65401 3.72064 9.49597 3.43934 9.21467C3.15804 8.93336 3 8.55183 3 8.15401ZM3 12.654C3 12.2562 3.15804 11.8747 3.43934 11.5933C3.72064 11.312 4.10218 11.154 4.5 11.154H25.5C25.8978 11.154 26.2794 11.312 26.5607 11.5933C26.842 11.8747 27 12.2562 27 12.654C27 13.0518 26.842 13.4334 26.5607 13.7147C26.2794 13.996 25.8978 14.154 25.5 14.154H4.5C4.10218 14.154 3.72064 13.996 3.43934 13.7147C3.15804 13.4334 3 13.0518 3 12.654Z" fill="#D62300"/>
</svg>
