<svg width="32" height="32" viewBox="0 0 32 32" fill="none" xmlns="http://www.w3.org/2000/svg">
<path d="M28 19.35L22.1138 16.7113L22.0913 16.7013C21.7086 16.5363 21.2908 16.4699 20.8759 16.5081C20.461 16.5463 20.0623 16.6879 19.7163 16.92C19.6678 16.9525 19.621 16.9875 19.5763 17.025L16.7875 19.4C15.1625 18.5187 13.4838 16.8538 12.6013 15.2488L14.9838 12.4163C15.0221 12.3705 15.0575 12.3225 15.09 12.2725C15.316 11.9277 15.4532 11.5324 15.4894 11.1217C15.5256 10.711 15.4597 10.2978 15.2975 9.91875C15.2937 9.91149 15.2903 9.90397 15.2875 9.89625L12.65 4C12.4335 3.5069 12.064 3.09661 11.5962 2.82984C11.1284 2.56306 10.5871 2.45399 10.0525 2.51875C8.23797 2.75712 6.57225 3.64784 5.36643 5.02457C4.16062 6.40129 3.49717 8.16988 3.50001 10C3.50001 20.2013 11.7988 28.5 22 28.5C23.8301 28.5028 25.5987 27.8394 26.9754 26.6336C28.3522 25.4278 29.2429 23.762 29.4813 21.9475C29.546 21.4129 29.4369 20.8716 29.1702 20.4038C28.9034 19.936 28.4931 19.5665 28 19.35ZM22 25.5C17.8907 25.495 13.9511 23.8604 11.0453 20.9547C8.1396 18.0489 6.50497 14.1093 6.50001 10C6.49715 8.96437 6.84874 7.95894 7.49636 7.15077C8.14398 6.34261 9.04864 5.78038 10.06 5.5575L12.4125 10.8075L10.0175 13.66C9.9788 13.7061 9.9429 13.7546 9.91001 13.805C9.67395 14.1657 9.53516 14.5813 9.50712 15.0115C9.47909 15.4416 9.56276 15.8717 9.75001 16.26C10.9275 18.67 13.3538 21.08 15.7888 22.26C16.1796 22.4453 16.6119 22.526 17.0433 22.4942C17.4747 22.4625 17.8905 22.3193 18.25 22.0788C18.2983 22.0461 18.3447 22.0107 18.3888 21.9725L21.1925 19.5888L26.4425 21.94C26.2196 22.9514 25.6574 23.856 24.8492 24.5037C24.0411 25.1513 23.0356 25.5029 22 25.5Z" fill="#D62300"/>
</svg>
