<svg xmlns="http://www.w3.org/2000/svg" xmlns:xlink="http://www.w3.org/1999/xlink" width="500" zoomAndPan="magnify" viewBox="0 0 375 374.999991" height="500" preserveAspectRatio="xMidYMid meet" version="1.0"><defs><g/><clipPath id="729e2dac74"><path d="M 64.269531 25.828125 L 310.730469 25.828125 L 310.730469 329.164062 L 64.269531 329.164062 Z M 64.269531 25.828125 " clip-rule="nonzero"/></clipPath><clipPath id="b01e3557a0"><path d="M 146.46875 322.046875 C 159.101562 326.34375 173.46875 329.164062 187.566406 329.164062 C 201.664062 329.164062 215.230469 326.75 227.734375 322.449219 C 228 322.316406 228.265625 322.316406 228.53125 322.183594 C 275.484375 304.996094 310.066406 259.609375 310.730469 206.570312 L 310.730469 25.828125 L 64.269531 25.828125 L 64.269531 206.433594 C 64.933594 259.878906 98.984375 305.265625 146.46875 322.046875 Z M 146.46875 322.046875 " clip-rule="nonzero"/></clipPath><clipPath id="f8b6a6ec66"><path d="M 188.179688 87.679688 L 205.625 87.679688 L 205.625 106.160156 L 188.179688 106.160156 Z M 188.179688 87.679688 " clip-rule="nonzero"/></clipPath></defs><path stroke-linecap="butt" transform="matrix(1.62345, 0, 0, 1.62345, 4.610251, 165.656269)" fill="none" stroke-linejoin="miter" d="M 46.85425 51.18102 C 48.96203 48.914435 49.936518 45.490496 49.936518 40.675807 C 49.936518 30.649416 45.877357 26.669659 36.409191 26.669659 L 6.743875 26.669659 C 5.689985 26.669659 4.874303 27.466091 4.874303 28.462234 L 4.874303 76.1303 C 4.874303 77.18419 5.689985 77.999872 6.743875 77.999872 L 38.935639 77.999872 C 49.200238 77.999872 53.617914 73.762657 53.617914 63.656863 C 53.617914 56.970196 51.488479 52.992845 46.85425 51.18102 Z M 30.877472 43.122853 C 30.877472 45.233039 29.982387 46.048721 27.932355 46.048721 L 23.955003 46.048721 L 23.955003 40.180142 L 27.932355 40.180142 C 29.982387 40.180142 30.877472 41.094476 30.877472 43.122853 Z M 23.955003 64.390736 L 23.955003 58.522158 L 31.613751 58.522158 C 33.721531 58.522158 34.537213 59.496645 34.537213 61.28922 C 34.537213 63.495652 33.721531 64.390736 31.613751 64.390736 Z M 82.780347 78.656748 C 104.286438 78.656748 109.021724 74.260728 109.021724 58.842174 L 109.021724 28.382831 C 109.021724 27.386689 108.206042 26.571007 107.229149 26.571007 L 91.83225 26.571007 C 90.756705 26.571007 89.960272 27.386689 89.960272 28.382831 L 89.960272 58.842174 C 89.960272 63.416249 88.328909 65.047613 82.780347 65.047613 C 77.32803 65.047613 75.696667 63.416249 75.696667 58.842174 L 75.696667 28.382831 C 75.696667 27.386689 74.880985 26.571007 73.827095 26.571007 L 58.408541 26.571007 C 57.434054 26.571007 56.618372 27.386689 56.618372 28.382831 L 56.618372 58.842174 C 56.618372 74.260728 61.351252 78.656748 82.780347 78.656748 Z M 118.232433 26.669659 C 116.184807 26.669659 114.553443 28.281773 114.553443 30.331806 L 114.553443 74.340131 C 114.553443 76.368508 116.184807 77.999872 118.232433 77.999872 L 146.663399 77.999872 C 161.504479 77.999872 167.931282 73.445046 167.931282 52.335968 C 167.931282 31.22689 162.062703 26.669659 147.240873 26.669659 Z M 133.631738 64.390736 L 133.631738 40.180142 L 141.531099 40.180142 C 146.425191 40.180142 148.872237 41.890909 148.872237 52.335968 C 148.872237 62.759373 146.425191 64.390736 141.531099 64.390736 Z M 196.939722 78.656748 C 216.896258 78.656748 221.311528 74.419533 221.311528 60.473538 C 221.311528 48.019351 216.896258 44.179149 203.864597 44.179149 L 196.622111 44.179149 C 192.464299 44.179149 191.569215 43.44287 191.569215 41.652701 C 191.569215 39.941934 192.543702 39.463112 196.52346 39.463112 C 200.938729 39.463112 201.915622 40.10074 202.15383 41.989561 C 202.233233 42.38898 202.651902 42.706591 203.048915 42.706591 L 217.632537 42.706591 C 218.368817 42.706591 219.422707 42.148366 219.422707 40.837019 C 218.864482 29.674929 213.573377 25.853977 195.965235 25.853977 C 178.936973 25.853977 172.49092 28.93865 172.49092 42.547785 C 172.49092 55.598696 177.623219 59.258437 191.071143 59.099632 L 197.676001 59.020229 C 201.09994 58.940826 202.233233 59.576048 202.233233 61.943691 C 202.233233 64.390736 201.09994 65.127016 196.939722 65.127016 C 191.966228 65.127016 190.753533 64.390736 190.753533 61.546677 C 190.753533 61.048606 190.255461 60.730995 189.779045 60.730995 L 173.465407 60.730995 C 172.411517 60.730995 171.675238 61.784885 171.675238 62.600567 C 172.170903 75.791034 177.623219 78.656748 196.939722 78.656748 Z M 196.939722 78.656748 " stroke="#9c1a1d" stroke-width="5.602486" stroke-opacity="1" stroke-miterlimit="4"/><path stroke-linecap="butt" transform="matrix(1.62345, 0, 0, 1.62345, 9.697595, 76.94946)" fill="none" stroke-linejoin="miter" d="M 6.998059 26.671928 C 5.94417 26.671928 5.128488 27.465955 5.128488 28.462097 L 5.128488 38.389836 C 5.128488 39.364324 5.94417 40.180006 6.998059 40.180006 L 19.950318 40.180006 L 19.950318 76.130163 C 19.950318 77.184053 20.766 77.999735 21.839139 77.999735 L 37.238444 77.999735 C 38.212931 77.999735 39.028613 77.184053 39.028613 76.130163 L 39.028613 40.180006 L 52.060274 40.180006 C 53.034761 40.180006 53.929846 39.364324 53.929846 38.389836 L 53.929846 28.462097 C 53.929846 27.465955 53.034761 26.671928 52.060274 26.671928 Z M 99.733152 28.700305 C 99.494944 27.567013 98.520457 26.671928 97.206704 26.671928 L 67.384988 26.671928 C 66.150638 26.671928 65.096748 27.567013 64.85854 28.700305 L 55.566022 75.790897 C 55.486619 76.368371 55.645425 76.945845 55.965442 77.342858 C 56.302301 77.761527 56.860526 77.999735 57.438 77.999735 L 73.491775 77.999735 C 74.307457 77.999735 75.123139 77.342858 75.281944 76.527177 L 77.331977 66.262578 L 87.339118 66.262578 L 89.389151 76.527177 C 89.547956 77.342858 90.284235 77.999735 91.17932 77.999735 L 107.235501 77.999735 C 107.79132 77.999735 108.289391 77.761527 108.607002 77.342858 C 108.946268 76.945845 109.105073 76.368371 109.02567 75.790897 Z M 82.384873 40.596268 L 84.653865 52.653442 L 80.01723 52.653442 Z M 114.470768 26.671928 C 113.991946 26.671928 113.496281 26.830734 113.176264 27.227747 C 112.760002 27.567013 112.601196 28.043429 112.601196 28.5415 L 112.601196 76.209566 C 112.601196 77.184053 113.416878 77.999735 114.470768 77.999735 L 129.809919 77.999735 C 130.863809 77.999735 131.679491 77.184053 131.679491 76.130163 L 131.679491 62.759236 L 148.551354 62.759236 C 149.525841 62.759236 150.341523 61.943554 150.341523 60.969067 L 150.341523 51.022078 C 150.341523 50.047591 149.525841 49.231909 148.551354 49.231909 L 131.679491 49.231909 L 131.679491 40.180006 L 155.870836 40.180006 C 156.847729 40.180006 157.663411 39.364324 157.663411 38.389836 L 157.663411 28.462097 C 157.663411 27.465955 156.847729 26.671928 155.870836 26.671928 Z M 161.166753 26.671928 C 160.112863 26.671928 159.297181 27.465955 159.297181 28.462097 L 159.297181 38.389836 C 159.297181 39.364324 160.112863 40.180006 161.166753 40.180006 L 174.119012 40.180006 L 174.119012 76.130163 C 174.119012 77.184053 174.934694 77.999735 176.007833 77.999735 L 191.407137 77.999735 C 192.381624 77.999735 193.197306 77.184053 193.197306 76.130163 L 193.197306 40.180006 L 206.228968 40.180006 C 207.203455 40.180006 208.098539 39.364324 208.098539 38.389836 L 208.098539 28.462097 C 208.098539 27.465955 207.203455 26.671928 206.228968 26.671928 Z M 161.166753 26.671928 " stroke="#9c1a1d" stroke-width="5.602486" stroke-opacity="1" stroke-miterlimit="4"/><g clip-path="url(#729e2dac74)"><g clip-path="url(#b01e3557a0)"><path fill="#9c1a1d" d="M 64.269531 25.828125 L 310.730469 25.828125 L 310.730469 329.164062 L 64.269531 329.164062 Z M 64.269531 25.828125 " fill-opacity="1" fill-rule="nonzero"/></g></g><g clip-path="url(#f8b6a6ec66)"><path fill="#fffaed" d="M 189.351562 105.609375 C 189.449219 105.183594 190.242188 104.363281 190.789062 103.921875 C 193.414062 101.78125 196.753906 100.789062 199.667969 99.933594 C 203.648438 98.722656 206.546875 94.730469 205.355469 90.675781 C 204.449219 87.589844 201.320312 87.097656 198.402344 88.3125 C 191.753906 91.074219 188.765625 99.035156 188.195312 105.613281 C 188.132812 106.335938 189.1875 106.359375 189.351562 105.609375 " fill-opacity="1" fill-rule="nonzero"/></g><path fill="#fffaed" d="M 179.417969 99.371094 C 179.335938 98.921875 178.457031 98.171875 177.84375 97.785156 C 174.898438 95.921875 171.027344 95.429688 167.652344 95.015625 C 163.042969 94.402344 159.90625 90.566406 161.601562 85.9375 C 162.894531 82.414062 166.621094 81.324219 169.980469 82.125 C 177.628906 83.957031 180.585938 92.101562 180.785156 99.171875 C 180.804688 99.945312 179.558594 100.160156 179.417969 99.371094 " fill-opacity="1" fill-rule="nonzero"/><path fill="#fffaed" d="M 181.597656 102.707031 C 181.597656 103.152344 181.234375 103.519531 180.785156 103.519531 C 180.335938 103.519531 179.972656 103.152344 179.972656 102.707031 C 179.972656 102.257812 180.335938 101.894531 180.785156 101.894531 C 181.234375 101.894531 181.597656 102.257812 181.597656 102.707031 " fill-opacity="1" fill-rule="nonzero"/><path fill="#fffaed" d="M 185.191406 92.363281 C 185.515625 91.71875 185.121094 89.933594 184.71875 88.859375 C 182.773438 83.691406 178.355469 79.378906 174.476562 75.636719 C 169.238281 70.460938 168.941406 62.621094 175.507812 58.390625 C 180.507812 55.167969 186.261719 57.34375 189.738281 61.5625 C 197.65625 71.175781 193.613281 84.289062 187.109375 93.414062 C 186.398438 94.414062 184.621094 93.496094 185.191406 92.363281 " fill-opacity="1" fill-rule="nonzero"/><path fill="#fffaed" d="M 185.855469 96.929688 C 185.855469 97.601562 185.308594 98.148438 184.636719 98.148438 C 183.964844 98.148438 183.417969 97.601562 183.417969 96.929688 C 183.417969 96.257812 183.964844 95.710938 184.636719 95.710938 C 185.308594 95.710938 185.855469 96.257812 185.855469 96.929688 " fill-opacity="1" fill-rule="nonzero"/><g fill="#fffaed" fill-opacity="1"><g transform="translate(16.713973, 204.949178)"><g><path d="M 4.367188 -83.335938 C 2.644531 -83.335938 1.324219 -82.015625 1.324219 -80.425781 L 1.324219 -64.289062 C 1.324219 -62.699219 2.644531 -61.378906 4.367188 -61.378906 L 25.398438 -61.378906 L 25.398438 -3.042969 C 25.398438 -1.324219 26.71875 0 28.441406 0 L 53.441406 0 C 55.027344 0 56.351562 -1.324219 56.351562 -3.042969 L 56.351562 -61.378906 L 77.515625 -61.378906 C 79.105469 -61.378906 80.558594 -62.699219 80.558594 -64.289062 L 80.558594 -80.425781 C 80.558594 -82.015625 79.105469 -83.335938 77.515625 -83.335938 Z M 4.367188 -83.335938 "/></g></g></g><g fill="#fffaed" fill-opacity="1"><g transform="translate(98.584086, 204.949178)"><g><path d="M 73.019531 -80.03125 C 72.621094 -81.882812 71.035156 -83.335938 68.917969 -83.335938 L 20.503906 -83.335938 C 18.519531 -83.335938 16.800781 -81.882812 16.402344 -80.03125 L 1.324219 -3.570312 C 1.191406 -2.644531 1.457031 -1.71875 1.984375 -1.058594 C 2.511719 -0.398438 3.4375 0 4.367188 0 L 30.425781 0 C 31.746094 0 33.070312 -1.058594 33.335938 -2.382812 L 36.640625 -19.046875 L 52.914062 -19.046875 L 56.21875 -2.382812 C 56.484375 -1.058594 57.675781 0 59.128906 0 L 85.1875 0 C 86.113281 0 86.910156 -0.398438 87.4375 -1.058594 C 87.964844 -1.71875 88.230469 -2.644531 88.097656 -3.570312 Z M 44.84375 -60.714844 L 48.546875 -41.140625 L 41.007812 -41.140625 Z M 44.84375 -60.714844 "/></g></g></g><g fill="#fffaed" fill-opacity="1"><g transform="translate(187.993117, 204.949178)"><g><path d="M 7.539062 -83.335938 C 6.746094 -83.335938 5.953125 -83.070312 5.421875 -82.410156 C 4.761719 -81.882812 4.496094 -81.085938 4.496094 -80.292969 L 4.496094 -2.910156 C 4.496094 -1.324219 5.820312 0 7.539062 0 L 32.410156 0 C 34.128906 0 35.449219 -1.324219 35.449219 -3.042969 L 35.449219 -24.738281 L 62.832031 -24.738281 C 64.421875 -24.738281 65.742188 -26.058594 65.742188 -27.648438 L 65.742188 -43.785156 C 65.742188 -45.371094 64.421875 -46.695312 62.832031 -46.695312 L 35.449219 -46.695312 L 35.449219 -61.378906 L 74.738281 -61.378906 C 76.324219 -61.378906 77.648438 -62.699219 77.648438 -64.289062 L 77.648438 -80.425781 C 77.648438 -82.015625 76.324219 -83.335938 74.738281 -83.335938 Z M 7.539062 -83.335938 "/></g></g></g><g fill="#fffaed" fill-opacity="1"><g transform="translate(266.953463, 204.949178)"><g><path d="M 4.367188 -83.335938 C 2.644531 -83.335938 1.324219 -82.015625 1.324219 -80.425781 L 1.324219 -64.289062 C 1.324219 -62.699219 2.644531 -61.378906 4.367188 -61.378906 L 25.398438 -61.378906 L 25.398438 -3.042969 C 25.398438 -1.324219 26.71875 0 28.441406 0 L 53.441406 0 C 55.027344 0 56.351562 -1.324219 56.351562 -3.042969 L 56.351562 -61.378906 L 77.515625 -61.378906 C 79.105469 -61.378906 80.558594 -62.699219 80.558594 -64.289062 L 80.558594 -80.425781 C 80.558594 -82.015625 79.105469 -83.335938 77.515625 -83.335938 Z M 4.367188 -83.335938 "/></g></g></g><g fill="#fffaed" fill-opacity="1"><g transform="translate(8.071855, 293.655987)"><g><path d="M 72.621094 -43.519531 C 76.0625 -47.222656 77.648438 -52.78125 77.648438 -60.585938 C 77.648438 -76.855469 71.035156 -83.335938 55.691406 -83.335938 L 7.539062 -83.335938 C 5.820312 -83.335938 4.496094 -82.015625 4.496094 -80.425781 L 4.496094 -3.042969 C 4.496094 -1.324219 5.820312 0 7.539062 0 L 59.789062 0 C 76.457031 0 83.601562 -6.878906 83.601562 -23.28125 C 83.601562 -34.128906 80.160156 -40.609375 72.621094 -43.519531 Z M 46.695312 -56.617188 C 46.695312 -53.175781 45.238281 -51.855469 41.933594 -51.855469 L 35.449219 -51.855469 L 35.449219 -61.378906 L 41.933594 -61.378906 C 45.238281 -61.378906 46.695312 -59.921875 46.695312 -56.617188 Z M 35.449219 -22.089844 L 35.449219 -31.613281 L 47.886719 -31.613281 C 51.324219 -31.613281 52.648438 -30.027344 52.648438 -27.117188 C 52.648438 -23.546875 51.324219 -22.089844 47.886719 -22.089844 Z M 35.449219 -22.089844 "/></g></g></g><g fill="#fffaed" fill-opacity="1"><g transform="translate(92.058159, 293.655987)"><g><path d="M 46.960938 1.058594 C 81.882812 1.058594 89.554688 -6.085938 89.554688 -31.085938 L 89.554688 -80.558594 C 89.554688 -82.144531 88.230469 -83.46875 86.644531 -83.46875 L 61.644531 -83.46875 C 59.921875 -83.46875 58.601562 -82.144531 58.601562 -80.558594 L 58.601562 -31.085938 C 58.601562 -23.679688 55.953125 -21.03125 46.960938 -21.03125 C 38.097656 -21.03125 35.449219 -23.679688 35.449219 -31.085938 L 35.449219 -80.558594 C 35.449219 -82.144531 34.128906 -83.46875 32.410156 -83.46875 L 7.40625 -83.46875 C 5.820312 -83.46875 4.496094 -82.144531 4.496094 -80.558594 L 4.496094 -31.085938 C 4.496094 -6.085938 12.167969 1.058594 46.960938 1.058594 Z M 46.960938 1.058594 "/></g></g></g><g fill="#fffaed" fill-opacity="1"><g transform="translate(186.096375, 293.655987)"><g><path d="M 10.449219 -83.335938 C 7.144531 -83.335938 4.496094 -80.691406 4.496094 -77.382812 L 4.496094 -5.953125 C 4.496094 -2.644531 7.144531 0 10.449219 0 L 56.617188 0 C 80.691406 0 91.140625 -7.40625 91.140625 -41.667969 C 91.140625 -75.929688 81.617188 -83.335938 57.542969 -83.335938 Z M 35.449219 -22.089844 L 35.449219 -61.378906 L 48.28125 -61.378906 C 56.21875 -61.378906 60.1875 -58.601562 60.1875 -41.667969 C 60.1875 -24.738281 56.21875 -22.089844 48.28125 -22.089844 Z M 35.449219 -22.089844 "/></g></g></g><g fill="#fffaed" fill-opacity="1"><g transform="translate(280.266858, 293.655987)"><g><path d="M 44.050781 1.058594 C 76.457031 1.058594 83.601562 -5.820312 83.601562 -28.441406 C 83.601562 -48.679688 76.457031 -54.894531 55.292969 -54.894531 L 43.519531 -54.894531 C 36.773438 -54.894531 35.320312 -56.085938 35.320312 -58.996094 C 35.320312 -61.773438 36.90625 -62.570312 43.386719 -62.570312 C 50.53125 -62.570312 52.117188 -61.511719 52.515625 -58.46875 C 52.648438 -57.804688 53.308594 -57.277344 53.96875 -57.277344 L 77.648438 -57.277344 C 78.839844 -57.277344 80.558594 -58.203125 80.558594 -60.320312 C 79.632812 -78.441406 71.035156 -84.660156 42.460938 -84.660156 C 14.816406 -84.660156 4.367188 -79.632812 4.367188 -57.542969 C 4.367188 -36.378906 12.699219 -30.425781 34.523438 -30.6875 L 45.238281 -30.820312 C 50.796875 -30.953125 52.648438 -29.894531 52.648438 -26.058594 C 52.648438 -22.089844 50.796875 -20.898438 44.050781 -20.898438 C 35.980469 -20.898438 33.996094 -22.089844 33.996094 -26.71875 C 33.996094 -27.515625 33.203125 -28.042969 32.410156 -28.042969 L 5.953125 -28.042969 C 4.234375 -28.042969 3.042969 -26.324219 3.042969 -25 C 3.835938 -3.570312 12.699219 1.058594 44.050781 1.058594 Z M 44.050781 1.058594 "/></g></g></g></svg>