<svg width="35" height="30" viewBox="0 0 35 30" fill="none" xmlns="http://www.w3.org/2000/svg">
<path d="M35 13.5C35 12.7044 34.6648 11.9413 34.0681 11.3787C33.4714 10.8161 32.6621 10.5 31.8182 10.5H21.7636L23.2909 3.645C23.3227 3.495 23.3386 3.33 23.3386 3.165C23.3386 2.55 23.0682 1.98 22.6386 1.575L20.9523 0L10.4841 9.87C9.89545 10.425 9.54545 11.175 9.54545 12V27C9.54545 27.7956 9.88068 28.5587 10.4774 29.1213C11.0741 29.6839 11.8834 30 12.7273 30H27.0455C28.3659 30 29.4955 29.25 29.9727 28.17L34.7773 17.595C34.9205 17.25 35 16.89 35 16.5V13.5ZM0 30H6.36364V12H0V30Z" fill="#D62300"/>
</svg>
