<svg width="35" height="30" viewBox="0 0 35 30" fill="none" xmlns="http://www.w3.org/2000/svg">
<path d="M27.7083 18.75H33.5416V3.75H27.7083M21.8749 3.75H8.74992C7.5395 3.75 6.50408 4.375 6.06658 5.275L1.66242 14.0875C1.53117 14.375 1.45825 14.675 1.45825 15V17.5C1.45825 18.163 1.76554 18.7989 2.31252 19.2678C2.8595 19.7366 3.60137 20 4.37492 20H13.577L12.1916 25.7125C12.1624 25.8375 12.1478 25.9625 12.1478 26.1C12.1478 26.625 12.3958 27.0875 12.7895 27.425L14.3353 28.75L23.9312 20.5125C24.4708 20.0625 24.7916 19.4375 24.7916 18.75V6.25C24.7916 5.58696 24.4843 4.95107 23.9373 4.48223C23.3903 4.01339 22.6485 3.75 21.8749 3.75Z" fill="#D62300"/>
</svg>
