<svg width="34" height="29" viewBox="0 0 34 29" fill="none" xmlns="http://www.w3.org/2000/svg">
<path d="M34 13.05C34 12.2809 33.6744 11.5432 33.0947 10.9994C32.515 10.4555 31.7289 10.15 30.9091 10.15H21.1418L22.6255 3.5235C22.6564 3.3785 22.6718 3.219 22.6718 3.0595C22.6718 2.465 22.4091 1.914 21.9918 1.5225L20.3536 0L10.1845 9.541C9.61273 10.0775 9.27273 10.8025 9.27273 11.6V26.1C9.27273 26.8691 9.59838 27.6068 10.178 28.1506C10.7577 28.6945 11.5439 29 12.3636 29H26.2727C27.5555 29 28.6527 28.275 29.1164 27.231L33.7836 17.0085C33.9227 16.675 34 16.327 34 15.95V13.05ZM0 29H6.18182V11.6H0V29Z" fill="#D62300"/>
</svg>
