<svg width="35" height="30" viewBox="0 0 35 30" fill="none" xmlns="http://www.w3.org/2000/svg">
<g clip-path="url(#clip0_79_232)">
<path d="M7.82189 13.25V31.25H1.45825V13.25H7.82189ZM14.1855 31.25C13.3417 31.25 12.5323 30.9339 11.9356 30.3713C11.3389 29.8087 11.0037 29.0456 11.0037 28.25V13.25C11.0037 12.425 11.3537 11.675 11.9423 11.135L22.4105 1.25L24.0969 2.84C24.5264 3.245 24.7969 3.8 24.7969 4.415L24.7492 4.895L23.2378 11.75H33.2764C34.1203 11.75 34.9296 12.0661 35.5263 12.6287C36.123 13.1913 36.4583 13.9544 36.4583 14.75V17.75C36.4583 18.14 36.3787 18.5 36.2355 18.845L31.431 29.42C30.9537 30.5 29.8242 31.25 28.5037 31.25H14.1855ZM14.1855 28.25H28.5514L33.2764 17.75V14.75H19.2923L21.0901 6.77L14.1855 13.295V28.25Z" fill="#D62300"/>
</g>
<defs>
<clipPath id="clip0_79_232">
<rect width="35" height="30" fill="white"/>
</clipPath>
</defs>
</svg>
