<svg width="35" height="30" viewBox="0 0 35 30" fill="none" xmlns="http://www.w3.org/2000/svg">
<path d="M27.7083 18.75V3.75H33.5416V18.75H27.7083ZM21.8749 3.75C22.6485 3.75 23.3903 4.01339 23.9373 4.48223C24.4843 4.95107 24.7916 5.58696 24.7916 6.25V18.75C24.7916 19.4375 24.4708 20.0625 23.9312 20.5125L14.3353 28.75L12.7895 27.425C12.3958 27.0875 12.1478 26.625 12.1478 26.1L12.1916 25.7125L13.577 20H4.37492C3.60137 20 2.8595 19.7366 2.31252 19.2678C1.76554 18.7989 1.45825 18.163 1.45825 17.5V15C1.45825 14.675 1.53117 14.375 1.66242 14.0875L6.06658 5.275C6.50408 4.375 7.5395 3.75 8.74992 3.75H21.8749ZM21.8749 6.25H8.70617L4.37492 15V17.5H17.1791L15.5312 24.15L21.8749 18.7125V6.25Z" fill="#D62300"/>
</svg>
