<svg width="30" height="30" viewBox="0 0 30 30" fill="none" xmlns="http://www.w3.org/2000/svg">
<g clip-path="url(#clip0_210_8)">
<path fill-rule="evenodd" clip-rule="evenodd" d="M18.1675 15.2813L23.4713 20.585L18.1675 25.8888C17.9331 26.1232 17.6152 26.2549 17.2837 26.255H13.75C13.4185 26.255 13.1005 26.1233 12.8661 25.8889C12.6317 25.6545 12.5 25.3365 12.5 25.005V21.4687C12.5001 21.1373 12.6318 20.8194 12.8663 20.585L18.1675 15.2813ZM21.25 2.5C21.8807 2.4998 22.4882 2.73801 22.9507 3.16687C23.4132 3.59573 23.6964 4.18356 23.7438 4.8125L23.75 5V10.025C22.8057 9.84586 21.8327 9.88711 20.9069 10.1455C19.9811 10.404 19.1275 10.8726 18.4125 11.515L18.1675 11.7463L11.0975 18.8175C10.4549 19.4602 10.0675 20.3144 10.0075 21.2212L9.99875 21.4687V25.005C9.99885 25.3447 10.0451 25.6828 10.1363 26.01L10.2112 26.25H6.25C5.61928 26.2502 5.01179 26.012 4.54932 25.5831C4.08684 25.1543 3.80355 24.5664 3.75625 23.9375L3.75 23.75V5C3.7498 4.36928 3.98801 3.76179 4.41687 3.29932C4.84573 2.83684 5.43356 2.55355 6.0625 2.50625L6.25 2.5H21.25ZM25.2387 13.5137C25.587 13.862 25.8633 14.2754 26.0518 14.7304C26.2403 15.1854 26.3373 15.6731 26.3373 16.1656C26.3373 16.6581 26.2403 17.1458 26.0518 17.6008C25.8633 18.0558 25.587 18.4693 25.2387 18.8175L19.9375 13.5125C20.6407 12.8095 21.5944 12.4146 22.5887 12.4146C23.5831 12.4146 24.5368 12.8095 25.24 13.5125L25.2387 13.5137ZM13.75 7.5H8.75C8.41848 7.5 8.10054 7.6317 7.86612 7.86612C7.6317 8.10054 7.5 8.41848 7.5 8.75C7.5 9.08152 7.6317 9.39946 7.86612 9.63388C8.10054 9.8683 8.41848 10 8.75 10H13.75C14.0815 10 14.3995 9.8683 14.6339 9.63388C14.8683 9.39946 15 9.08152 15 8.75C15 8.41848 14.8683 8.10054 14.6339 7.86612C14.3995 7.6317 14.0815 7.5 13.75 7.5Z" fill="#885133"/>
</g>
<defs>
<clipPath id="clip0_210_8">
<rect width="30" height="30" fill="white"/>
</clipPath>
</defs>
</svg>
